<svg xmlns="http://www.w3.org/2000/svg" viewBox="0 0 1122 1122"><defs><style>.cls-1{fill:#ffde77;}.cls-2{fill:#ff9642;}.cls-3,.cls-4{stroke:#fff;stroke-linecap:round;stroke-linejoin:round;}.cls-4{fill:none;stroke-width:14px;}</style></defs><g id="Object"><polygon class="cls-1" points="935.05 585.92 935.05 445.61 913.63 452.87 913.63 585.92 935.05 585.92"/><path class="cls-1" d="M899,618.79v81.92a25.31,25.31,0,0,0,50.62,0V618.79A25.24,25.24,0,0,0,942.36,601h-36A25.21,25.21,0,0,0,899,618.79Z"/><polygon class="cls-2" points="903.1 585.92 903.1 601.04 906.33 601.04 942.36 601.04 945.57 601.04 945.57 585.92 935.05 585.92 913.63 585.92 903.1 585.92"/><polygon class="cls-3" points="281.48 477.3 528.35 561.01 775.22 477.3 882.63 440.87 904.05 433.61 915.33 429.78 528.35 299.46 141.35 429.78 281.48 477.3"/><polygon class="cls-4" points="312.48 489.3 559.35 573.01 806.22 489.3 913.63 452.87 935.05 445.61 946.33 441.78 559.35 311.46 172.35 441.78 312.48 489.3"/><path class="cls-3" d="M782.22,516.08l-240,81.39a21.33,21.33,0,0,1-13.7,0l-240-81.39V717.37h.25l-.54,2.76c0,24,110.67,77.41,247,77.41s246.72-53.46,246.72-77.41l-.56-2.76h.85Z"/><path class="cls-4" d="M806.22,529.08l-240,81.39a21.33,21.33,0,0,1-13.7,0l-240-81.39V730.37h.25l-.54,2.76c0,24,110.67,77.41,247,77.41s246.72-53.46,246.72-77.41l-.56-2.76h.85Z"/></g></svg>