<svg id="圖層_1" data-name="圖層 1" xmlns="http://www.w3.org/2000/svg" viewBox="0 0 283.46 283.46"><defs><style>.cls-1{fill:#ada3e2;}.cls-2{fill:#ef3737;}.cls-3{fill:#fee66e;}.cls-4{fill:#1b03aa;}.cls-5{fill:#f1f1f1;}</style></defs><path class="cls-1" d="M172.8,150.29s25.69-14.26,21.61-31.1S189,100,184.62,98.77c-5.7-1.66-17.39,18.24-17.39,18.24Z"/><path class="cls-1" d="M118.2,148.74s-25.85-14-22-30.86,5.23-19.21,9.57-20.52c5.68-1.72,17.59,18,17.59,18Z"/><path class="cls-1" d="M120.89,208c3.36,14.25,10.39,31.17,21.19,31.12,13.42-.07,20.38-17.63,24.66-32.53A116.76,116.76,0,0,0,120.89,208Z"/><path class="cls-2" d="M167.47,111.67s12.1-32.23,2.15-41.8S153.92,76,153.92,76s6-28.94-9.7-30.75-11.83,23.4-11.83,23.4-2.17-3.65-10.77-3.83c-15.25-.33.53,46,.53,46Z"/><path class="cls-3" d="M160,111.51s8.32-22.13,1.48-28.7S150.69,87,150.69,87s4.14-19.88-6.66-21.12-8.13,16.07-8.13,16.07-1.49-2.51-7.39-2.63c-10.48-.22.36,31.55.36,31.55Z"/><path class="cls-4" d="M166.74,206.58c14.12-68.15.73-94.91.73-94.91-20.46-11.32-45.32-1-45.32-1,0-2-17.1,24.08-1.26,97.27A116.76,116.76,0,0,1,166.74,206.58Z"/><path class="cls-3" d="M123.55,157.5c.19-9.27,8.12-19.2,18.42-19S162.28,145.34,162,157a18.52,18.52,0,0,1-18.66,17.69C133.06,174.49,123.36,166.77,123.55,157.5Z"/><path class="cls-5" d="M143.27,171.34a14.9,14.9,0,0,0,12.24-6.11,14.38,14.38,0,0,0,2.94-8.29c.2-9.5-7.94-14.88-16.32-15.05-6.85-.15-12.41,5.23-14.29,11.31a14.84,14.84,0,0,0-.7,4.13C127,164.88,134.88,171.16,143.27,171.34Z"/></svg>