<svg id="圖層_1" data-name="圖層 1" xmlns="http://www.w3.org/2000/svg" xmlns:xlink="http://www.w3.org/1999/xlink" viewBox="0 0 283.46 283.46"><defs><style>.cls-1,.cls-13,.cls-2{fill:#ada3e2;}.cls-1{opacity:0.34;}.cls-2{opacity:0.31;}.cls-3{fill:#1b03aa;}.cls-4{fill:#b47143;}.cls-5{fill:#93542a;}.cls-6{fill:#eec446;}.cls-7{fill:#efb259;}.cls-8{fill:#fee66e;}.cls-9{fill:#c68960;}.cls-10{fill:#1c253f;}.cls-11{fill:#ed3b3b;}.cls-12{fill:#db3131;}.cls-14{fill:#fff;}.cls-15{fill:#debefc;}.cls-16{fill:url(#linear-gradient);}</style><linearGradient id="linear-gradient" x1="50.11" y1="167.44" x2="39.03" y2="56.69" gradientUnits="userSpaceOnUse"><stop offset="0" stop-color="#d3d3d3"/><stop offset="1" stop-color="#d3d3d3" stop-opacity="0"/></linearGradient></defs><ellipse class="cls-1" cx="81.94" cy="213.04" rx="67.62" ry="5.37"/><ellipse class="cls-2" cx="211.86" cy="213.04" rx="67.62" ry="5.37"/><rect class="cls-3" x="133.77" y="169.52" width="11.22" height="8.66"/><rect class="cls-3" x="144.63" y="167.39" width="5.4" height="12.92"/><rect class="cls-3" x="157.98" y="169.52" width="11.22" height="8.66" transform="translate(327.17 347.71) rotate(180)"/><rect class="cls-3" x="152.93" y="167.39" width="5.4" height="12.92" transform="translate(311.26 347.71) rotate(180)"/><path class="cls-4" d="M183.51,128.17h0a5,5,0,0,1-.46-7l9.59-10.94a4.93,4.93,0,0,1,7-.46h0a4.93,4.93,0,0,1,.46,7l-9.58,10.94A5,5,0,0,1,183.51,128.17Z"/><path class="cls-4" d="M227.55,143a4.92,4.92,0,0,1-5.57-4.18l-1.84-12.86,0-.35-.17-1.19a4.74,4.74,0,0,1,0-.65,4.94,4.94,0,0,1,4.25-4.94,5.34,5.34,0,0,1,.69,0,4.93,4.93,0,0,1,4.88,4.25l.2,1.39,1.85,13A4.92,4.92,0,0,1,227.55,143Z"/><path class="cls-4" d="M239.41,115.12c-1.36,3.72-5,6.57-9.64,8.37a33.52,33.52,0,0,1-9.68,2.07,38.26,38.26,0,0,1-4.79,0c-6.45-.37-12.85-2.41-17.32-6.45a17.89,17.89,0,0,1-1.95-2,20.83,20.83,0,0,1-3.74-6.42c-3.13-9.26,5.1-14.7,5.1-14.7-2.15-3.22,1.59-6.43,2-6.73a10.49,10.49,0,0,1-1.5.75,13.53,13.53,0,0,1-2.26.71c-5.51,1.25-12.55-.34-12.75-6.39a8.39,8.39,0,0,1,.12-1.83c.06-.32.12-.63.2-.93,2.05-8.12,11.2-4.79,11.2-4.79q.27-.37.57-.72a8.32,8.32,0,0,1,8.92-2.87,10.18,10.18,0,0,1,3.06,1.36l0,0A10,10,0,0,1,209.5,77h0a10.76,10.76,0,0,1,1.77,3.41,10.15,10.15,0,0,1,.43,1.81c.07.49.14,1,.2,1.54a43.88,43.88,0,0,1,.24,8.37c-.06.8-.17,1.6-.29,2.38-1.3,7.64,16.73,5.32,21.2,4.24l.31-.08C237.24,97.58,243.84,103.05,239.41,115.12Z"/><path class="cls-5" d="M212.42,83.09a1.54,1.54,0,0,1-.5.63c-1.55,1.4-6.48,3.89-12.46,4H198a9.78,9.78,0,0,1-.1,2.32,13.53,13.53,0,0,1-2.26.71,22.43,22.43,0,0,0-.41-3.14c-5.47-.36-10.05-1.49-11.87-2.84a3.94,3.94,0,0,1-.47-.41,8.39,8.39,0,0,1,.12-1.83c.06-.32.12-.63.2-.93,2.06,1.72,6.82,3,11.5,3.43-.86-3.84-2-7.68-2-7.68a1.93,1.93,0,0,1,2-.35,60.28,60.28,0,0,1,2.24,5.69,19.61,19.61,0,0,1,.73,2.47,25.84,25.84,0,0,0,2.84-.14,23,23,0,0,0,10.86-4.61l.5-.36A7.44,7.44,0,0,1,212.42,83.09Z"/><path class="cls-5" d="M228.28,103.91v0l-.21,1.36a7.47,7.47,0,0,1-8.53,6.22l-2.43-.39a7.47,7.47,0,0,1-6.22-8.53l.14-.9.08-.49A7.48,7.48,0,0,1,219.64,95l2.44.39A7.45,7.45,0,0,1,228.28,103.91Z"/><path class="cls-6" d="M223.66,91l-.19.22c-1.07,1.15-6.11,6-11.31.83a45.11,45.11,0,0,0-.44-9.91,10.85,10.85,0,0,0-7.86-9A8.37,8.37,0,0,0,194.94,76a13.21,13.21,0,0,1-1.43-3.78,7.09,7.09,0,0,1-.07-2.6c.35-2.14,2-4.12,6.45-4.64,9.45-1.1,20.82,2.69,21.1,11.22a11.47,11.47,0,0,1-.6,4C216.74,91.55,223.66,91,223.66,91Z"/><path class="cls-7" d="M223.47,91.26c-1.07,1.15-6.11,6-11.31.83a45.11,45.11,0,0,0-.44-9.91,10.85,10.85,0,0,0-7.86-9A8.37,8.37,0,0,0,194.94,76a13.21,13.21,0,0,1-1.43-3.78c.39-.52,1.29-.68,2.05-1,2.84-1,6-1.77,8.94-.91a13.13,13.13,0,0,1,5.21,3.21,25,25,0,0,1,5.65,7.81c1,2.2,1.71,4.57,3.1,6.57A7.34,7.34,0,0,0,223.47,91.26Z"/><path class="cls-8" d="M221,76.24c-3.36-2.91-6.87-5.75-11-7.33a20.56,20.56,0,0,0-5.54-1.27,21.59,21.59,0,0,0-9.87,1.44c-.2.08-.66.37-1.11.58.35-2.14,2-4.12,6.45-4.64C209.34,63.92,220.71,67.71,221,76.24Z"/><path class="cls-6" d="M262.8,104.61a11.63,11.63,0,0,1-1.38,4.28l0,0a14.28,14.28,0,0,1-23.8,2c-2.24-2.84-4.25-8.26-2.59-11.82a4.5,4.5,0,0,1,1.85-2,8.79,8.79,0,0,1,7.88-.42,7.7,7.7,0,0,1,1.34.94c3,2.62,4.51,7.29,8.34,8.59a5.85,5.85,0,0,0,7.65-6.41A8.63,8.63,0,0,1,262.8,104.61Z"/><path class="cls-7" d="M261.42,108.89l0,0a14.28,14.28,0,0,1-23.8,2c-2.24-2.84-4.25-8.26-2.59-11.82a4.5,4.5,0,0,1,1.85-2,12.92,12.92,0,0,1,4,1.66,8.51,8.51,0,0,1,2.91,3.44,40,40,0,0,1,1.52,5.43,6.61,6.61,0,0,0,3.25,4.41,7,7,0,0,0,3.78.26A23.05,23.05,0,0,0,261.42,108.89Z"/><path class="cls-9" d="M247.4,132.57a40.74,40.74,0,0,1-5.18,6.77,39,39,0,0,1-67-30.45A38.18,38.18,0,0,1,177.8,98a1.44,1.44,0,0,1,2.78.61,39.62,39.62,0,0,0,.59,9,39,39,0,0,0,63.64,22.64A1.74,1.74,0,0,1,247.4,132.57Z"/><path class="cls-4" d="M242.22,139.34a39,39,0,0,1-67-30.45A39,39,0,0,0,214.29,148a38.83,38.83,0,0,0,25.21-9.3A1.72,1.72,0,0,1,242.22,139.34Z"/><path class="cls-10" d="M200.36,79.87a1.21,1.21,0,1,1-1.21-1.21A1.21,1.21,0,0,1,200.36,79.87Z"/><path class="cls-11" d="M212.12,79.1a23.67,23.67,0,0,1-11.36,5,25.91,25.91,0,0,1-2.84.15,18.68,18.68,0,0,0-.73-2.47,61.17,61.17,0,0,0-2.25-5.69,1.88,1.88,0,0,0-1.94.35s1.13,3.83,2,7.67c-5-.43-10.08-1.89-11.88-3.76a2.23,2.23,0,0,0,.54,3.5c1.82,1.36,6.39,2.49,11.87,2.84a14.57,14.57,0,0,1,.35,4.52,2.28,2.28,0,0,0,1.76-.63c.42-.44.78-1.8.66-3.78h1.5c7.08-.09,12.73-3.59,13-4.59A7.57,7.57,0,0,0,212.12,79.1Z"/><path class="cls-4" d="M209.43,77.11l0,0a10.31,10.31,0,0,0-2.55-2.38l0,0c.05,0,2.73-7.23,6.6-4.88C216.77,71.84,209.43,77.11,209.43,77.11Z"/><path class="cls-11" d="M228.33,102.77v0l-.22,1.36a7.46,7.46,0,0,1-8.53,6.22l-2.43-.39a7.46,7.46,0,0,1-6.21-8.53l.14-.9.08-.48a7.48,7.48,0,0,1,8.53-6.22l2.44.39A7.46,7.46,0,0,1,228.33,102.77Z"/><path class="cls-8" d="M262.8,104.61a7.62,7.62,0,0,1-10.75,2.68,10.46,10.46,0,0,1-3.12-3.36,29.61,29.61,0,0,1-2-4.18,9.41,9.41,0,0,1-.86-2.13c3,2.62,4.51,7.29,8.34,8.59a5.85,5.85,0,0,0,7.65-6.41A8.63,8.63,0,0,1,262.8,104.61Z"/><path class="cls-12" d="M228.33,102.79l-.22,1.36a7.46,7.46,0,0,1-8.53,6.22l-2.43-.39a7.46,7.46,0,0,1-6.21-8.53l.14-.9a16.05,16.05,0,0,0,1.45,1.08,12.92,12.92,0,0,0,4.57,1.22A45.87,45.87,0,0,0,228.33,102.79Z"/><path class="cls-5" d="M212.56,72.3a.9.9,0,0,1,0,.8,2.45,2.45,0,0,1-.5.66A24.25,24.25,0,0,1,209.71,76a1.37,1.37,0,0,1-.91.41,1.12,1.12,0,0,1-.88-1.17c.12-.51.87-1.09,1.26-1.41A6.71,6.71,0,0,1,212.56,72.3Z"/><rect class="cls-13" x="167.27" y="143.75" width="82.35" height="51.71"/><rect class="cls-3" x="164.72" y="136.76" width="87.46" height="12.98"/><circle class="cls-3" cx="234.27" cy="198.84" r="19.41"/><circle class="cls-13" cx="234.27" cy="198.84" r="15.28" transform="translate(1.99 400) rotate(-81.22)"/><path class="cls-8" d="M249.55,196.7H239.43l7.16-7.16-3-3-7.15,7.15V183.55h-4.28v10.12L225,186.52l-3,3,7.15,7.16H219V201H229.1L222,208.13l3,3,7.16-7.15v10.11h4.28V204l7.15,7.15,3-3L239.43,201h10.12Zm-14.65,3.66h-1.26l-.9-.89v-1.26l.9-.89h1.26l.89.89v1.26Z"/><circle class="cls-14" cx="234.27" cy="198.84" r="3.01"/><circle class="cls-3" cx="182.63" cy="198.84" r="19.41"/><circle class="cls-13" cx="182.63" cy="198.84" r="15.28" transform="translate(-41.84 348.86) rotate(-81.19)"/><path class="cls-8" d="M197.92,196.7H187.8l7.15-7.16-3-3-7.16,7.15V183.55h-4.28v10.12l-7.15-7.15-3,3,7.15,7.16H167.35V201h10.11l-7.15,7.15,3,3,7.15-7.15v10.11h4.28V204l7.16,7.15,3-3L187.8,201h10.12Zm-14.66,3.66H182l-.89-.89v-1.26l.89-.89h1.26l.89.89v1.26Z"/><circle class="cls-14" cx="182.63" cy="198.84" r="3.01"/><rect class="cls-15" x="167.35" y="149.36" width="82.28" height="3.95"/><path class="cls-16" d="M36.18,69.62c-6.08.64-12.35,1.35-17.72,4.26s-9.71,8.64-9.1,14.73c.5,5,4.17,9.16,8.52,11.61s9.34,3.45,14.24,4.41c-3.17,1.84-6.45,3.78-8.47,6.84s-2.33,7.58.31,10.12c4.17,4,12.1.62,16.4,4.52,1.7,1.54,2.57,4.06,4.69,5a7.69,7.69,0,0,0,3.79.23l14.74-1.56a22.68,22.68,0,0,1-5.45-5A7.64,7.64,0,0,1,57,117.65c1.67-4.09,7.59-5.24,9-9.42.81-2.34-.11-5-1.71-6.88A21.5,21.5,0,0,0,58.38,97L45.8,89.69C50.3,88,55.25,88,60,87.18s9.77-2.64,12.25-6.78a10.28,10.28,0,0,0-10-15.5"/><path class="cls-3" d="M38.36,156.12s-8.24,9.9-8.24,19.67,8.24,19.67,8.24,19.67H82.09V156.12Z"/><rect class="cls-13" x="79.53" y="137.85" width="54.24" height="57.62"/><path class="cls-13" d="M136,132.25H77.42a2.11,2.11,0,0,1-1.87-3.1l11.76-22.32a2.13,2.13,0,0,1,1.87-1.13h36.24a2.61,2.61,0,0,1,2.37,1.52l10.14,22A2.11,2.11,0,0,1,136,132.25Z"/><path class="cls-3" d="M138,140.47H76.83a5.53,5.53,0,0,1-5.54-5.53h0a5.54,5.54,0,0,1,5.54-5.53H138a5.53,5.53,0,0,1,5.53,5.53h0A5.52,5.52,0,0,1,138,140.47Z"/><rect class="cls-13" x="46.39" y="137.96" width="12.73" height="22.4" rx="3.2"/><rect class="cls-15" x="41.36" y="130.55" width="23.18" height="11.37"/><circle class="cls-3" cx="111.71" cy="198.84" r="19.41"/><circle class="cls-13" cx="111.71" cy="198.84" r="15.28" transform="translate(-102.5 277.11) rotate(-80.74)"/><path class="cls-8" d="M127,196.7H116.88l7.15-7.16-3-3-7.16,7.15V183.55h-4.28v10.12l-7.15-7.15-3,3,7.16,7.16H96.43V201h10.12l-7.16,7.15,3,3,7.15-7.15v10.11h4.28V204l7.16,7.15,3-3L116.88,201H127Zm-14.66,3.66h-1.26l-.89-.89v-1.26l.89-.89h1.26l.9.89v1.26Z"/><circle class="cls-14" cx="111.71" cy="198.84" r="3.01"/><circle class="cls-3" cx="60.08" cy="198.84" r="19.41"/><circle class="cls-13" cx="60.08" cy="198.84" r="15.28" transform="translate(-145.83 226.15) rotate(-80.74)"/><path class="cls-8" d="M75.36,196.7H65.25l7.15-7.16-3-3-7.15,7.15V183.55H57.94v10.12l-7.16-7.15-3,3,7.15,7.16H44.79V201H54.91l-7.15,7.15,3,3L57.94,204v10.11h4.28V204l7.15,7.15,3-3L65.25,201H75.36Zm-14.65,3.66H59.45l-.89-.89v-1.26l.89-.89h1.26l.89.89v1.26Z"/><circle class="cls-14" cx="60.08" cy="198.84" r="3.01"/><path class="cls-8" d="M132.89,174.38H31A2.43,2.43,0,0,1,28.57,172h0A2.43,2.43,0,0,1,31,169.52H132.89a2.43,2.43,0,0,1,2.43,2.43h0A2.43,2.43,0,0,1,132.89,174.38Z"/><rect class="cls-13" x="79.48" y="140.47" width="54.28" height="3.95"/><rect class="cls-15" x="79.48" y="174.38" width="54.28" height="1.97"/><path class="cls-8" d="M106.65,143.79A7.61,7.61,0,0,0,99,151.4v11.42h15.22V151.4A7.61,7.61,0,0,0,106.65,143.79Z"/></svg>