<svg xmlns="http://www.w3.org/2000/svg" xmlns:xlink="http://www.w3.org/1999/xlink" viewBox="0 0 283.46 283.46"><defs><style>.cls-1{fill:#b57243;}.cls-2{isolation:isolate;}.cls-3{fill:#bc794b;}.cls-4{fill:#efdfd3;}.cls-14,.cls-5{fill:#c47e4e;}.cls-6{fill:#f4e1d4;}.cls-7{fill:#dd925f;}.cls-8{clip-path:url(#clip-path);}.cls-9{fill:#a55e2f;}.cls-10{fill:#602c08;}.cls-11{fill:#fee66e;}.cls-12{fill:#f9d0cf;}.cls-13{fill:#ccb140;}.cls-14{opacity:0.29;mix-blend-mode:multiply;}.cls-15{fill:#e2c3af;}.cls-16{fill:#7f3f14;}.cls-17{fill:none;stroke:#7f3f14;stroke-linecap:round;stroke-miterlimit:10;stroke-width:2px;}.cls-18{fill:#e8d0c1;}</style><clipPath id="clip-path"><path class="cls-1" d="M191.63,132.57c-10.08,2.06-22.59,1.14-35.15-1.4-18.74-3.78-37.57-11.2-48.5-17.77-4.91-3-8.23-5.76-9.22-8C94.09,95,101,92,105.11,88.21S112.17,65.3,125,49.06c28.79-28.51,83.43-2.35,93.59,10.22C239.65,85.29,223.53,126.08,191.63,132.57Z"/></clipPath></defs><g class="cls-2"><g id="圖層_1" data-name="圖層 1"><path class="cls-3" d="M24.16,205.17s.12-10.08,8.5-10.62,63.12-3.42,72.49,0,21.25,42.69,3.6,48.45-71.66,7.59-78-5S24.16,205.17,24.16,205.17Z"/><path class="cls-4" d="M24.14,221.24c-1.74-11.78.1-21.81,4.11-22.4s8.68,8.47,10.42,20.25-.09,21.81-4.11,22.4S25.89,233,24.14,221.24Z"/><path class="cls-5" d="M52.16,112.45s4.79,15.2,10.92,25.77,13.53,19,23,20.94,22.59-10.11,26.5-16.92c6.07-10.57,0-38.2-35.09-57.17Z"/><path class="cls-6" d="M77.35,96.72a40.54,40.54,0,0,1-5.42,8.48c-6.72,8.16-15,12.47-18.42,9.62-2.08-1.71-1.95-5.63,0-10.27a39.29,39.29,0,0,1,5.94-9.66c6.72-8.15,15-12.45,18.42-9.61C80.08,87.15,79.73,91.58,77.35,96.72Z"/><path class="cls-1" d="M95.65,142.22S79.52,169.3,81,195.27s90,58.74,114.8,52.34,28.23-25.16,23.34-52.29,7.15-49.89-32.75-56.58S100.17,127.54,95.65,142.22Z"/><circle class="cls-1" cx="130.68" cy="43.19" r="23.85" transform="translate(63.27 163.18) rotate(-78.96)"/><circle class="cls-7" cx="130.68" cy="43.19" r="15.49" transform="translate(-6.55 53.66) rotate(-22.65)"/><circle class="cls-1" cx="224.81" cy="68.96" r="23.85" transform="translate(107.78 272.92) rotate(-77.2)"/><path class="cls-7" d="M240.3,69a15.49,15.49,0,1,1-15.49-15.49A15.49,15.49,0,0,1,240.3,69Z"/><path class="cls-1" d="M191.63,132.57c-10.08,2.06-22.59,1.14-35.15-1.4-18.74-3.78-37.57-11.2-48.5-17.77-4.91-3-8.23-5.76-9.22-8C94.09,95,101,92,105.11,88.21S112.17,65.3,125,49.06c28.79-28.51,83.43-2.35,93.59,10.22C239.65,85.29,223.53,126.08,191.63,132.57Z"/><g class="cls-8"><path class="cls-9" d="M226,64.47s4,25.69-37.26,55.33-34,25.12-34,25.12,59.12-11,60-11.29S247.63,87,247.63,87,236.2,67,235.07,67,226,64.47,226,64.47Z"/></g><path class="cls-6" d="M164.72,111.16a28.2,28.2,0,0,1-8.24,20c-18.74-3.78-37.57-11.2-48.5-17.77,0-.73-.09-1.48-.09-2.24a28.42,28.42,0,1,1,56.83,0Z"/><path class="cls-10" d="M133.78,74.89a5,5,0,1,1-5-5A5,5,0,0,1,133.78,74.89Z"/><path class="cls-9" d="M158.43,161.45c-36.27-3.39-48-12.85-59.86-19.2a19.36,19.36,0,0,1-3.5-11.69,23.77,23.77,0,0,0,2.1,3.95c11.87,6.35,23.59,15.8,59.87,19.19s59.16-4.52,58.32-14.4a56.49,56.49,0,0,1-.13-5.71c2.15,2.87,1,7.45,1.53,13.46C217.6,156.93,194.71,164.84,158.43,161.45Z"/><path class="cls-9" d="M176.11,162.25s6.93,19.81,4.73,39.65-9.25-11.45-9.25-11.45l-3.39-31.14Z"/><path class="cls-5" d="M112.88,231.5s-2.38-9.79,5.6-12.39,60.31-19,70.23-18,31.17,36.09,15.5,46-67.54,25.12-76.79,14.45S112.88,231.5,112.88,231.5Z"/><path class="cls-4" d="M115,247.61c-4.94-11.79-5.92-22.61-2.19-24.18s10.78,6.71,15.73,18.5,5.93,22.61,2.19,24.18S119.93,259.39,115,247.61Z"/><path class="cls-11" d="M216.76,141.28a56.81,56.81,0,0,1-.14-5.71c0-6.47,0-10.39-11.15-11.09-24.56-1.55-36.31,8.61-57.54,1.27-20.77-7.18-42.93-17-45.9-16.69a.66.66,0,0,0-.3.15c-1.36,1.18-11.86,10.83-6.65,23.33a22.77,22.77,0,0,0,2.12,3.94c8.67,4.59,17.26,10.8,35.19,15.16,1.33,14.71,4.37,49.5,3.92,55.26-.57,7.34,40.64,5.93,40.36-4.24-.21-7.75-1.81-29.17-7.49-46.27C199.18,157.32,217.51,150.09,216.76,141.28Z"/><path class="cls-12" d="M103.29,113.09l18.23,6.37S114.18,120.44,103.29,113.09Z"/><path class="cls-13" d="M169.18,156.39c1-.32-13.81.65-22.64-3.86A24.86,24.86,0,0,0,169.18,156.39Z"/><path class="cls-5" d="M265.1,152.79s0,0,0,0c-1.26,4.86-5.74,10.35-15,14.85h0c-6.94,3.4-16.57,6.22-29.54,7.8-14.29,1.75-21.52-6.34-24.38-16.11h0c-3.19-10.91-1-23.89,2.9-27.66,7.36-7.13,41.57-22.39,51-22.62,9.05-.24,11,2.42,11.14,2.66l0,0S267.27,144.28,265.1,152.79Z"/><path class="cls-6" d="M267.92,135.15a61.1,61.1,0,0,1-.56,8.46c-1.26,9.18-4.52,15.7-8.34,15.7-4.92,0-8.91-10.81-8.91-24.16a53.41,53.41,0,0,1,2.19-15.85c1.63-5.1,4-8.32,6.72-8.32C263.94,111,267.92,121.8,267.92,135.15Z"/><path class="cls-14" d="M250.1,167.68c-6.94,3.4-16.57,6.22-29.54,7.8-14.29,1.75-21.52-6.34-24.38-16.11C196.51,159.7,209.2,172.27,250.1,167.68Z"/><path class="cls-15" d="M124.89,100.41a10.82,10.82,0,0,0,7.87.9,4.48,4.48,0,0,1,2.73-.26,4.39,4.39,0,0,1,1.52,1.36,11.3,11.3,0,0,0,14.38,2.33,12,12,0,0,1-8.25-2.59A35.19,35.19,0,0,1,137,95.8a13.77,13.77,0,0,1-8.68,2.34A13.61,13.61,0,0,1,123.85,97c-.82-.36-2.88-2.17-3.67-1.84C120.57,97.33,123.07,99.43,124.89,100.41Z"/><path class="cls-10" d="M177.24,87.78a5,5,0,1,1-5-5A5,5,0,0,1,177.24,87.78Z"/><path class="cls-16" d="M141.74,95.75a6.29,6.29,0,0,1-8-1.64c-2.64-3.33-5-7.56-.83-7.68,6.59-.18,15.34,2.73,15,4.71C147.72,92.23,144.55,94.2,141.74,95.75Z"/><path class="cls-17" d="M120.5,94.55S127.34,102.37,137,96"/><path class="cls-17" d="M136.31,92.16s2.06,14.68,15.12,12.42"/><path class="cls-18" d="M267.36,143.61c-1.26,9.18-4.52,15.7-8.34,15.7-4.92,0-8.91-10.81-8.91-24.16a53.41,53.41,0,0,1,2.19-15.85s.64,33.9,10.05,28.4C264.52,146.44,266.3,145.52,267.36,143.61Z"/><path class="cls-18" d="M77.35,96.72a40.54,40.54,0,0,1-5.42,8.48c-6.72,8.16-15,12.47-18.42,9.62-2.08-1.71-1.95-5.63,0-10.27a21.51,21.51,0,0,0,12.2-.49A32.5,32.5,0,0,0,77.35,96.72Z"/></g></g></svg>